<svg viewBox="0 0 100 100"><g transform="translate(0,-952.36218)"><path style="font-size:medium;font-style:normal;font-variant:normal;font-weight:normal;font-stretch:normal;text-indent:0;text-align:start;text-decoration:none;line-height:normal;letter-spacing:normal;word-spacing:normal;text-transform:none;direction:ltr;block-progression:tb;writing-mode:lr-tb;text-anchor:start;baseline-shift:baseline;opacity:1;fill-opacity:1;stroke:none;stroke-width:1.66666662999999990;marker:none;visibility:visible;display:inline;overflow:visible;enable-background:accumulate;font-family:Sans;-inkscape-font-specification:Sans" d="M 50 7 C 26.263604 7 7 26.2636 7 50 C 7 73.7364 26.263604 93 50 93 C 73.736396 93 93 73.7364 93 50 C 93 26.2636 73.736396 7 50 7 z M 50 9 C 72.65552 9 91 27.34448 91 50 C 91 72.6555 72.65552 91 50 91 C 27.34448 91 9 72.6555 9 50 C 9 27.34448 27.34448 9 50 9 z M 59.9375 26.96875 A 1.0001 1.0001 0 0 0 59.3125 27.25 L 35.3125 49.25 A 1.0001 1.0001 0 0 0 35.3125 50.71875 L 59.3125 72.71875 A 1.0059819 1.0059819 0 0 0 60.6875 71.25 L 37.5 50 L 60.6875 28.71875 A 1.0001 1.0001 0 0 0 59.9375 26.96875 z " transform="translate(0,952.36218)"/></g></svg>
