<svg viewBox="0 0 100 125"><g transform="translate(0,-952.36218)"><g transform="translate(5.9987039,979.33068)"><path d="m 44.007874,0.03543307 c -18.354331,0 -34.5118111,8.64566893 -43.6535433,21.82677093 -0.46062991,0.637795 -0.46062991,1.629921 0,2.303149 9.1417322,13.145669 25.2992123,21.862204 43.6535433,21.862204 18.318897,0 34.51181,-8.716535 43.653542,-21.862204 0.425197,-0.637795 0.46063,-1.629921 0,-2.303149 C 78.519684,8.681102 62.326771,0.03543307 44.007874,0.03543307 z m 0,4.00393683 c 16.51181,0 30.93307,7.6181101 39.437007,18.9921251 -8.503937,11.374016 -22.925197,18.992126 -39.437007,18.992126 -16.511811,0 -30.968504,-7.61811 -39.4370079,-18.992126 C 13.03937,11.65748 27.46063,4.0393699 44.007874,4.0393699 z m 0,2.9763779 c -8.822835,0 -16.015748,7.1929132 -16.015748,16.0157472 0,8.822835 7.192913,15.980315 16.015748,15.980315 8.787401,0 15.980314,-7.15748 15.980314,-15.980315 0,-8.822834 -7.192913,-16.0157472 -15.980314,-16.0157472 z m 0,4.0039372 c 6.625984,0 11.976377,5.350393 11.976377,12.01181 0,6.661417 -5.350393,12.011811 -11.976377,12.011811 -6.661418,0 -12.011811,-5.350394 -12.011811,-12.011811 0,-6.661417 5.350393,-12.01181 12.011811,-12.01181 z" style="" fill-opacity="1" fill-rule="nonzero" stroke="none"/></g></g></svg>
