<svg viewBox="0 0 100 125"><g transform="translate(0,-952.36218)"><path class="svg-path" style="text-indent:0;text-transform:none;direction:ltr;block-progression:tb;baseline-shift:baseline;color:#000000;enable-background:accumulate;" d="m 49.998772,980.36216 c -18.0324,0 -33.8633,8.5169 -42.8124994,21.40624 -0.218,0.3237 -0.2766,0.7975 0,1.1563 8.9491994,12.8894 24.7800994,21.4375 42.8124994,21.4375 18.0324,0 33.8633,-8.5481 42.8125,-21.4375 0.2376,-0.3353 0.2649,-0.817 0,-1.1563 -8.9492,-12.88934 -24.7801,-21.40624 -42.8125,-21.40624 z m -8.1562,2.65621 c -7.5356,3.19079 -12.8438,10.65419 -12.8438,19.34383 0,8.6896 5.3082,16.153 12.8438,19.3438 -13.6529,-2.0949 -25.3373,-9.3123 -32.5624996,-19.3438 7.2232996,-10.04074 18.9057996,-17.25124 32.5624996,-19.34383 z m 16.3125,0 c 13.6567,2.09259 25.3391,9.30309 32.5625,19.34383 -7.2253,10.0315 -18.9097,17.2489 -32.5625,19.3438 7.5355,-3.1908 12.8437,-10.6542 12.8437,-19.3438 0,-8.68964 -5.3082,-16.15304 -12.8437,-19.34383 z m -8.1563,0.34379 c 10.5052,0 19,8.49481 19,19.00004 0,10.5052 -8.4948,19 -19,19 -10.5053,0 -19,-8.4948 -19,-19 0,-10.50523 8.4947,-19.00004 19,-19.00004 z m 0,10 c -4.9587,0 -9,4.0413 -9,9.00004 0,4.9587 4.0413,9 9,9 4.9587,0 9,-4.0413 9,-9 0,-4.95874 -4.0413,-9.00004 -9,-9.00004 z m 0,2 c 3.8778,0 7,3.12221 7,7.00004 0,3.8778 -3.1222,7 -7,7 -3.8778,0 -7,-3.1222 -7,-7 0,-3.87783 3.1222,-7.00004 7,-7.00004 z" fill-opacity="1" stroke="none" marker="none" visibility="visible" display="inline" overflow="visible"/></g></svg>
